# AST/ASF file generated using VICON BodyLanguage
# -----------------------------------------------
:version 1.10
:name VICON
:units
  mass 1.0
  length 0.45
  angle deg
:documentation
   .ast/.asf automatically generated from VICON data using
   VICON BodyBuilder and BodyLanguage model FoxedUp or BRILLIANT.MOD
:root
   order TX TY TZ RX RY RZ
   axis XYZ
   position 0 0 0  
   orientation 0 0 0 
:bonedata
  begin
     id 1 
     name lhipjoint
     direction 0.577973 -0.728611 0.367523 
     length 2.48544 
     axis 0 0 0  XYZ
  end
  begin
     id 2 
     name lfemur
     direction 0.34202 -0.939693 0  
     length 7.1921  
     axis 0 0 20  XYZ
    dof rx ry rz
    limits (-160.0 20.0)
           (-70.0 70.0)
           (-60.0 70.0)
  end
  begin
     id 3 
     name ltibia
     direction 0.34202 -0.939693 0   
     length 7.71059   
     axis 0 0 20   XYZ
    dof rx
    limits (-10.0 170.0)
  end
  begin
     id 4 
     name lfoot
     direction 0.089538 -0.246004 0.965124   
     length 2.19909   
     axis -90 7.62852e-016 20   XYZ
    dof rx rz
    limits (-45.0 90.0)
           (-70.0 20.0)
  end
  begin
     id 5 
     name ltoes
     direction 1.53544e-011 -4.21829e-011 1   
     length 1.10116   
     axis -90 7.62852e-016 20   XYZ
    dof rx
    limits (-90.0 20.0)
  end
  begin
     id 6 
     name rhipjoint
     direction -0.554414 -0.743062 0.374812   
     length 2.4371  
     axis 0 0 0  XYZ 
  end
  begin
     id 7 
     name rfemur
     direction -0.34202 -0.939693 0   
     length 7.47254   
     axis 0 0 -20   XYZ
    dof rx ry rz
    limits (-160.0 20.0)
           (-70.0 70.0)
           (-70.0 60.0)
  end
  begin
     id 8 
     name rtibia
     direction -0.34202 -0.939693 0   
     length 7.65855   
     axis 0 0 -20   XYZ
    dof rx
    limits (-10.0 170.0)
 end
 begin
     id 9 
     name rfoot
     direction -0.133779 -0.367555 0.92033   
     length 2.43006  
     axis -90 -7.62852e-016 -20   XYZ
    dof rx rz
    limits (-45.0 90.0)
           (-20.0 70.0)
  end
  begin
     id 10 
     name rtoes
     direction -1.53563e-011 -4.21889e-011 1   
     length 1.19625   
     axis -90 -7.62852e-016 -20   XYZ
    dof rx
    limits (-90.0 20.0)
  end
  begin
     id 11 
     name lowerback
     direction 0.0249066 0.998043 -0.0573585   
     length 2.08485   
     axis 0 0 0   XYZ
    dof rx ry rz
    limits (-20.0 45.0)
           (-30.0 30.0)
           (-30.0 30.0)
  end
  begin
     id 12 
     name upperback
     direction 0.0237884 0.999673 0.00943178   
     length 2.08515   
     axis 0 0 0   XYZ
    dof rx ry rz
    limits (-20.0 45.0)
           (-30.0 30.0)
           (-30.0 30.0)
  end
  begin
     id 13 
     name thorax
     direction 0.0106671 0.999301 0.0358174   
     length 2.09037   
     axis 0 0 0   XYZ
    dof rx ry rz
    limits (-20.0 45.0)
           (-30.0 30.0)
           (-30.0 30.0)
  end
  begin
     id 14 
     name lowerneck
     direction -0.0580016 0.987052 0.149546   
     length 1.84454   
     axis 0 0 0   XYZ
    dof rx ry rz
    limits (-20.0 45.0)
           (-30.0 30.0)
           (-30.0 30.0)
  end
  begin
     id 15 
     name upperneck
     direction 0.079456 0.981963 -0.171567   
     length 1.88141   
     axis 0 0 0   XYZ
    dof rx ry rz
    limits (-20.0 45.0)
           (-30.0 30.0)
           (-30.0 30.0)
  end
  begin
     id 16
     name head
     direction 0.0262167 0.9967 -0.0768276  
     length 1.89541  
     axis 0 0 0   XYZ
    dof rx ry rz
    limits (-20.0 45.0)
           (-30.0 30.0)
           (-30.0 30.0)
  end
  begin
     id 17 
     name lclavicle
     direction 0.946135 0.322134 -0.0325326  
     length 3.949  
     axis 0 0 0   XYZ
    dof ry rz
    limits (-20.0 10.0)
           (0.0 20.0)
  end
  begin
     id 18 
     name lhumerus
     direction 1 -4.48964e-011 1.94005e-028   
     length 5.10995   
     axis 180 -30 -90   XYZ
    dof rx ry rz
    limits (-60.0 90.0)
           (-90.0 90.0)
           (-90.0 90.0)
  end
  begin
     id 19
     name lradius
     direction 1 -4.48976e-011 2.87852e-027   
     length 3.21207   
     axis 180 -30 -90   XYZ
    dof rx
    limits (-10.0 170.0)
  end
  begin
     id 20
     name lwrist
     direction 1 -4.48963e-011 1.9975e-027   
     length 1.60604   
     axis 2.96054e-016 90 90   XYZ
    dof ry
    limits (-180.0 0.0)
 end
  begin
     id 21 
     name lhand
     direction 1 -4.48919e-011 4.00227e-027   
     length 0.63349   
     axis -2.5488e-015 90 90   XYZ
    dof rx rz
    limits (-90.0 90.0)
           (-45.0 45.0)
  end
  begin
     id 22 
     name lfingers
     direction 1 -4.49037e-011 7.9652e-027   
     length 0.510736   
     axis -5.0975e-015 90 90   XYZ
    dof rx
    limits (0.0 90.0)
  end
  begin
     id 23
     name lthumb
     direction 0.707107 -6.34922e-011 0.707107   
     length 0.733318   
     axis -90 45 -4.48553e-014   XYZ
    dof rx rz
    limits (-45.0 45.0)
           (-45.0 45.0)
  end
  begin
     id 24 
     name rclavicle
     direction -0.940085 0.328911 -0.0897654   
     length 3.93848  
     axis 0 0 0   XYZ 
    dof ry rz
    limits (-10.0 20.0)
           (-20.0 0.0)
  end
  begin
     id 25 
     name rhumerus
     direction -1 -4.48958e-011 3.02044e-027  
     length 5.25109   
     axis 180 30 90   XYZ
    dof rx ry rz
    limits (-90.0 60.0)
           (-90.0 90.0)
           (-90.0 90.0)
  end
  begin
     id 26 
     name rradius
     direction -1 -4.4897e-011 9.78352e-028   
     length 3.28364   
     axis 180 30 90   XYZ
    dof rx
    limits (-10.0 170.0)
  end
  begin
     id 27 
     name rwrist
     direction -1 -4.48943e-011 1.99918e-027   
     length 1.64182   
     axis 2.96054e-016 -90 -90   XYZ
    dof ry
    limits (-180.0 0.0)
  end
  begin
     id 28
     name rhand
     direction -1 -4.49024e-011 3.98478e-027   
     length 0.599745   
     axis -2.5488e-015 -90 -90   XYZ
    dof rx rz
    limits (-90.0 90.0)
           (-45.0 45.0)
  end
  begin
     id 29
     name rfingers
     direction -1 -4.48914e-011 8.00621e-027   
     length 0.48353   
     axis -5.0975e-015 -90 -90   XYZ
    dof rx
    limits (0.0 90.0)
  end
  begin
     id 30
     name rthumb
     direction -0.707107 -6.34992e-011 0.707107   
     length 0.694255   
     axis -90 -45 4.48553e-014   XYZ
    dof rx rz
    limits (-45.0 45.0)
           (-45.0 45.0)
  end
:hierarchy
  begin
    root lhipjoint rhipjoint lowerback
    lhipjoint lfemur
    lfemur ltibia
    ltibia lfoot
    lfoot ltoes
    rhipjoint rfemur
    rfemur rtibia
    rtibia rfoot
    rfoot rtoes
    lowerback upperback
    upperback thorax
    thorax lowerneck lclavicle rclavicle
    lowerneck upperneck
    upperneck head
    lclavicle lhumerus
    lhumerus lradius
    lradius lwrist
    lwrist lhand lthumb
    lhand lfingers
    rclavicle rhumerus
    rhumerus rradius
    rradius rwrist
    rwrist rhand rthumb
    rhand rfingers
  end

#!OML:ASF E:\CV Data\Top Level 1\Subject 1\Session 1\player.ASF
:FULLY-SPECIFIED
:DEGREES
391
root -0.0773833 16.706 -20.8574 17.2121 -16.8262 -10.2326
lowerback 24.2862 3.24732 12.8008
upperback 7.73241 7.43546 7.98493
thorax -4.29022 3.48975 -0.438141
lowerneck -19.194 -8.01121 -10.0192
upperneck 7.91078 -9.29639 8.00327
head 6.33906 -4.21712 3.11135
rclavicle -4.77083e-015 3.02153e-014
rhumerus 8.46173 -21.0788 -78.8581
rradius 35.2166
rwrist 11.041
rhand -29.2423 13.1106
rfingers 7.12502
rthumb -2.58574 -16.8534
lclavicle -4.77083e-015 3.02153e-014
lhumerus -24.7353 -7.12769 85.9196
lradius 48.4188
lwrist -0.743218
lhand -11.5133 7.79652
lfingers 7.12502
lthumb 14.5259 37.268
rfemur -20.504 -8.92496 30.2846
rtibia 49.2857
rfoot -30.2336 -9.34006
rtoes -16.4502
lfemur -56.2392 18.55 -23.4435
ltibia 32.7252
lfoot 4.05565 19.6053
ltoes 16.0134
392
root -0.0847421 16.7186 -20.7491 17.26 -16.1371 -10.1733
lowerback 24.3159 3.135 12.7612
upperback 7.7194 7.29846 8.01342
thorax -4.34177 3.42221 -0.356004
lowerneck -18.9996 -7.9529 -10.0866
upperneck 7.08854 -9.20459 8.20809
head 6.0504 -4.16919 3.21258
rclavicle 8.5875e-014 -6.36111e-015
rhumerus 7.23906 -20.1302 -77.6904
rradius 37.9582
rwrist 8.46545
rhand -28.8788 13.6415
rfingers 7.12502
rthumb -2.23464 -16.3265
lclavicle 8.5875e-014 -6.36111e-015
lhumerus -25.2353 -6.596 85.5875
lradius 48.5481
lwrist 0.512209
lhand -12.2808 8.36654
lfingers 7.12502
lthumb 13.7864 37.8897
rfemur -20.3836 -9.1695 30.2276
rtibia 49.5401
rfoot -29.7384 -9.34925
rtoes -17.3115
lfemur -56.3898 18.6795 -23.908
ltibia 33.1185
lfoot 4.33533 19.2408
ltoes 15.7818
393
root -0.0897562 16.7367 -20.6372 17.2932 -15.5016 -10.0935
lowerback 24.3362 3.02811 12.7009
upperback 7.7038 7.1609 8.01957
thorax -4.3909 3.35493 -0.286181
lowerneck -18.8646 -7.87059 -10.1042
upperneck 6.34892 -9.08185 8.349
head 5.79043 -4.10792 3.28688
rclavicle -7.95139e-015 -2.06736e-014
rhumerus 5.98323 -19.227 -76.606
rradius 40.8847
rwrist 5.08154
rhand -28.2821 14.2938
rfingers 7.12502
rthumb -1.65834 -15.6795
lclavicle -7.95139e-015 -2.06736e-014
lhumerus -25.8067 -6.12369 85.2547
lradius 48.7372
lwrist 1.89949
lhand -13.0307 8.96442
lfingers 7.12502
lthumb 13.0636 38.5353
rfemur -20.2876 -9.40295 30.0995
rtibia 49.8464
rfoot -29.0481 -9.19419
rtoes -18.1702
lfemur -56.3787 18.7914 -24.3572
ltibia 33.3058
lfoot 4.61295 18.7088
ltoes 15.6982
394
root -0.09276 16.76 -20.522 17.3398 -14.897 -9.99317
lowerback 24.3208 2.92611 12.6289
upperback 7.66831 7.02288 8.00669
thorax -4.44318 3.28749 -0.228989
lowerneck -18.7104 -7.77685 -10.121
upperneck 5.64312 -8.94515 8.4761
head 5.53738 -4.04115 3.35816
rclavicle -1.27222e-014 -4.13472e-014
rhumerus 4.65402 -18.4492 -75.5874
rradius 43.9913
rwrist 1.5731
rhand -27.4563 14.7258
rfingers 7.12502
rthumb -0.86081 -15.2522
lclavicle -1.27222e-014 -4.13472e-014
lhumerus -26.4736 -5.73482 84.9352
lradius 49.0077
lwrist 3.38676
lhand -13.8005 9.54191
lfingers 7.12502
lthumb 12.3215 39.1589
rfemur -20.2655 -9.62707 29.9082
rtibia 50.2362
rfoot -28.1548 -8.85532
rtoes -18.9608
lfemur -56.2532 18.8616 -24.7962
ltibia 33.3032
lfoot 4.8393 17.938
ltoes 15.8753
395
root -0.0945126 16.7874 -20.4045 17.4164 -14.3125 -9.8802
lowerback 24.2466 2.82811 12.5582
upperback 7.62632 6.87944 7.9684
thorax -4.46969 3.21955 -0.195089
lowerneck -18.5706 -7.68125 -10.1334
upperneck 4.95911 -8.80744 8.61518
head 5.29496 -3.97251 3.4317
rclavicle -2.8625e-014 1.43125e-014
rhumerus 3.28166 -17.8455 -74.6524
rradius 47.1983
rwrist -1.50824
rhand -26.5479 14.8694
rfingers 7.12502
rthumb 0.0165453 -15.1104
lclavicle -2.8625e-014 1.43125e-014
lhumerus -27.1951 -5.44238 84.6147
lradius 49.3753
lwrist 4.9523
lhand -14.5698 10.0617
lfingers 7.12502
lthumb 11.5797 39.7218
rfemur -20.3757 -9.82708 29.6701
rtibia 50.7875
rfoot -27.0715 -8.33179
rtoes -19.616
lfemur -56.0877 18.871 -25.2095
ltibia 33.2242
lfoot 4.97624 16.9907
ltoes 16.2514
396
root -0.0958716 16.8383 -20.286 17.5531 -13.7751 -9.77537
lowerback 24.1118 2.7593 12.4681
upperback 7.56361 6.76071 7.91488
thorax -4.48726 3.16409 -0.170725
lowerneck -18.4795 -7.59405 -10.1336
upperneck 4.335 -8.68123 8.75287
head 5.08032 -3.90787 3.49935
rclavicle -6.04305e-014 -2.38542e-014
rhumerus 1.84148 -17.3992 -73.7573
rradius 50.4208
rwrist -3.78127
rhand -25.7239 14.7632
rfingers 7.12502
rthumb 0.812431 -15.215
lclavicle -6.04305e-014 -2.38542e-014
lhumerus -27.9815 -5.27154 84.3122
lradius 49.8456
lwrist 6.5308
lhand -15.3465 10.4897
lfingers 7.12502
lthumb 10.8306 40.1904
rfemur -20.6329 -9.95948 29.4105
rtibia 51.452
rfoot -25.7326 -7.64083
rtoes -20.1373
lfemur -55.8444 18.8412 -25.5649
ltibia 33.0413
lfoot 5.02221 16.0179
ltoes 16.7856
397
root -0.0972591 16.8711 -20.165 17.6973 -13.2293 -9.66366
lowerback 23.959 2.68965 12.3728
upperback 7.47985 6.63999 7.85467
thorax -4.51896 3.10679 -0.15033
lowerneck -18.365 -7.51541 -10.156
upperneck 3.71767 -8.56633 8.92322
head 4.86875 -3.8478 3.57963
rclavicle 3.81667e-014 4.6118e-014
rhumerus 0.327302 -17.0517 -72.8738
rradius 53.581
rwrist -5.13014
rhand -25.0697 14.5317
rfingers 7.12502
rthumb 1.44422 -15.4432
lclavicle 3.81667e-014 4.6118e-014
lhumerus -28.8353 -5.20695 84.0342
lradius 50.4421
lwrist 8.09963
lhand -16.0398 10.8862
lfingers 7.12502
lthumb 10.1617 40.6208
rfemur -21.0491 -10.0774 29.1122
rtibia 52.3518
rfoot -24.1949 -6.8036
rtoes -20.4842
lfemur -55.6168 18.7076 -25.8612
ltibia 32.8629
lfoot 5.07213 15.1448
ltoes 17.3719
398
root -0.0991499 16.9047 -20.0441 17.8577 -12.6461 -9.53373
lowerback 23.759 2.61427 12.2769
upperback 7.38987 6.50435 7.78107
thorax -4.53297 3.04377 -0.13796
lowerneck -18.2617 -7.45047 -10.1758
upperneck 3.09357 -8.47072 9.12497
head 4.66094 -3.79533 3.66673
rclavicle 3.18055e-015 5.88403e-014
rhumerus -1.21356 -16.7713 -72.0078
rradius 56.6287
rwrist -5.6682
rhand -24.59 14.2099
rfingers 7.12502
rthumb 1.90758 -15.7613
lclavicle 3.18055e-015 5.88403e-014
lhumerus -29.7077 -5.25834 83.7692
lradius 51.1597
lwrist 9.55501
lhand -16.6337 11.2293
lfingers 7.12502
lthumb 9.58879 40.991
rfemur -21.619 -10.1976 28.7852
rtibia 53.4195
rfoot -22.4063 -5.85459
rtoes -20.6329
lfemur -55.3631 18.4723 -26.1155
ltibia 32.6579
lfoot 5.13528 14.4253
ltoes 17.8044
399
root -0.10107 16.9386 -19.9216 17.9815 -12.0573 -9.3902
lowerback 23.5728 2.53453 12.1693
upperback 7.29837 6.36289 7.69959
thorax -4.55615 2.9775 -0.127582
lowerneck -18.1461 -7.3906 -10.1978
upperneck 2.45942 -8.38262 9.35185
head 4.45106 -3.74599 3.76139
rclavicle -3.49861e-014 -6.52014e-014
rhumerus -2.78461 -16.4964 -71.1422
rradius 59.5265
rwrist -5.73713
rhand -24.3253 13.8568
rfingers 7.12502
rthumb 2.16316 -16.1119
lclavicle -3.49861e-014 -6.52014e-014
lhumerus -30.6106 -5.41289 83.5295
lradius 51.9741
lwrist 10.791
lhand -17.1277 11.535
lfingers 7.12502
lthumb 9.11209 41.3182
rfemur -22.2788 -10.2973 28.408
rtibia 54.6762
rfoot -20.4101 -4.81482
rtoes -20.4895
lfemur -55.0695 18.1811 -26.3187
ltibia 32.5372
lfoot 5.13144 13.8957
ltoes 18.1027
400
root -0.103699 16.9721 -19.8003 18.073 -11.4228 -9.21691
lowerback 23.4126 2.45019 12.0284
upperback 7.19176 6.21632 7.62736
thorax -4.61462 2.90665 -0.0903306
lowerneck -18.0036 -7.34345 -10.2249
upperneck 1.80665 -8.31008 9.5799
head 4.23384 -3.70583 3.85607
rclavicle -4.45278e-014 5.24792e-014
rhumerus -4.40356 -16.1966 -70.2436
rradius 62.3352
rwrist -5.75097
rhand -24.244 13.4342
rfingers 7.12502
rthumb 2.24176 -16.5338
lclavicle -4.45278e-014 5.24792e-014
lhumerus -31.5561 -5.66582 83.3423
lradius 52.8894
lwrist 11.7194
lhand -17.5272 11.7902
lfingers 7.12502
lthumb 8.72659 41.5898
rfemur -23.0109 -10.3894 27.9875
rtibia 56.049
rfoot -18.2106 -3.73579
rtoes -19.9366
lfemur -54.7313 17.8395 -26.5172
ltibia 32.4198
lfoot 5.07079 13.4547
ltoes 18.2404
